<?xml version="1.0" encoding="UTF-8" standalone="no"?>
<svg width="91px" height="91px" viewBox="0 0 91 91" version="1.1" xmlns="http://www.w3.org/2000/svg" xmlns:xlink="http://www.w3.org/1999/xlink" xmlns:sketch="http://www.bohemiancoding.com/sketch/ns">
    <!-- Generator: Sketch 3.2.2 (9983) - http://www.bohemiancoding.com/sketch -->
    <title>noun_50219_cc</title>
    <desc>Created with Sketch.</desc>
    <defs></defs>
    <g id="Page-1" stroke="none" stroke-width="1" fill="none" fill-rule="evenodd" sketch:type="MSPage">
        <g id="Artboard-1" sketch:type="MSArtboardGroup" transform="translate(-335.000000, -294.000000)" fill="#FFFFFF">
            <g id="noun_50219_cc" sketch:type="MSLayerGroup" transform="translate(335.000000, 294.000000)">
                <g id="Group" sketch:type="MSShapeGroup">
                    <path d="M70.2,26 L76.9,26 C79.6,26 81.8,23.9 81.8,21.2 L81.8,14.5 C81.8,11.9 79.6,9.7 76.9,9.7 L70.2,9.7 C67.6,9.7 65.4,11.9 65.4,14.5 L65.4,21.2 C65.4,23.8 67.6,26 70.2,26 L70.2,26 Z M68.3,14.5 C68.3,13.5 69.2,12.6 70.2,12.6 L76.9,12.6 C78,12.6 78.9,13.4 78.9,14.5 L78.9,21.2 C78.9,22.2 78,23.1 76.9,23.1 L70.2,23.1 C69.2,23.1 68.3,22.2 68.3,21.2 L68.3,14.5 L68.3,14.5 Z" id="Shape"></path>
                    <path d="M73.1,0.3 L18.7,0.3 C8.8,0.3 0.9,8.2 0.9,18 L0.9,72.4 C0.9,82.2 8.9,90.2 18.7,90.2 L73.1,90.2 C82.9,90.2 90.9,82.2 90.9,72.4 L90.9,18 C90.9,8.2 82.9,0.3 73.1,0.3 L73.1,0.3 Z M18.7,3.2 L73.1,3.2 C81.3,3.2 88,9.9 88,18 L88,30.8 L62.3,30.8 L62.3,30.8 C57.8,26.5 51.7,24 45.1,24 C38.5,24 32.4,26.6 27.9,30.8 L3.8,30.8 L3.8,18 C3.8,9.8 10.4,3.2 18.7,3.2 L18.7,3.2 Z M29.3,33.4 C29.4,33.3 29.5,33.2 29.6,33.1 C33.6,29.2 39.1,26.8 45.1,26.8 C57.4,26.8 67.3,36.9 67.3,49.2 C67.3,61.5 57.3,71.4 45.1,71.4 C32.8,71.4 22.7,61.4 22.7,49.2 C22.7,43.1 25.3,37.5 29.3,33.4 L29.3,33.4 Z M73.1,87.3 L18.7,87.3 C10.5,87.3 3.8,80.6 3.8,72.4 L3.8,33.7 L25.3,33.7 C21.9,38 19.9,43.4 19.9,49.3 C19.9,63.2 31.2,74.5 45.2,74.5 C59.1,74.5 70.3,63.2 70.3,49.3 C70.3,43.4 68.3,38 64.9,33.7 L88,33.7 L88,72.5 C87.9,80.7 81.3,87.3 73.1,87.3 L73.1,87.3 Z" id="Shape"></path>
                    <path d="M45,63.6 C53,63.6 59.4,57.1 59.4,49.1 C59.4,41.1 52.9,34.6 45,34.6 C37,34.6 30.6,41.1 30.6,49.1 C30.5,57.1 37,63.6 45,63.6 L45,63.6 Z M45,37.6 C51.4,37.6 56.5,42.8 56.5,49.1 C56.5,55.5 51.3,60.6 45,60.6 C38.6,60.6 33.5,55.4 33.5,49.1 C33.4,42.8 38.6,37.6 45,37.6 L45,37.6 Z" id="Shape"></path>
                </g>
            </g>
        </g>
    </g>
</svg>