<?xml version="1.0" encoding="UTF-8" standalone="no"?>
<svg width="41px" height="34px" viewBox="0 0 41 34" version="1.1" xmlns="http://www.w3.org/2000/svg" xmlns:xlink="http://www.w3.org/1999/xlink" xmlns:sketch="http://www.bohemiancoding.com/sketch/ns">
    <!-- Generator: Sketch 3.2.2 (9983) - http://www.bohemiancoding.com/sketch -->
    <title>Shape</title>
    <desc>Created with Sketch.</desc>
    <defs></defs>
    <g id="Page-1" stroke="none" stroke-width="1" fill="none" fill-rule="evenodd" sketch:type="MSPage">
        <g id="noun_26635_cc" sketch:type="MSLayerGroup" fill="#FFFFFF">
            <path d="M40.013133,4.57187629 C39.8385303,4.3486952 39.5610727,4.23659972 39.2821099,4.27699449 C39.1165384,4.30072642 38.9073163,4.34213105 38.6363812,4.40171333 C38.3845119,4.4567512 38.0769504,4.52996672 37.7337659,4.6158056 C37.8652196,4.31284485 37.9761023,3.99776566 38.0749434,3.66905325 C38.2359993,3.12877324 38.3699617,2.55415768 38.5089413,1.94470163 C38.5791838,1.6392162 38.464789,1.32110741 38.21593,1.13125201 C37.9665694,0.941901538 37.6314126,0.918169612 37.3574671,1.06964999 C36.127221,1.75282649 35.2075468,2.18606036 34.4123021,2.46932867 C33.7414868,2.70765779 33.153959,2.8434852 32.5072268,2.93588823 C31.7486085,2.21635644 30.8976715,1.66294813 29.9850216,1.28424719 C28.9549664,0.854547854 27.8511567,0.645 26.7237656,0.645 C25.3751108,0.645504935 23.9923382,0.943416342 22.6411748,1.5165171 L22.6411748,1.5165171 C21.984408,1.79524099 21.3738005,2.20878242 20.8213939,2.71371701 C19.9935366,3.47263369 19.2956278,4.43958343 18.7964048,5.51761877 C18.2971817,6.59565412 17.9961427,7.78578494 17.995641,8.99207367 C17.995641,9.11881226 18.0001566,9.24605577 18.0061774,9.37228942 C17.9851046,9.36673514 17.9655371,9.36168579 17.9449661,9.35613151 C16.5105152,8.97339109 14.3013905,8.21598921 12.108823,7.2318717 C11.2097198,6.82994377 9.96642869,6.02709777 8.75374318,4.99299174 C7.53754555,3.9604005 6.34091546,2.69250975 5.47593002,1.37412555 C5.34547978,1.17467638 5.13324727,1.04591806 4.89743337,1.0216812 C4.66161948,0.997444342 4.42731077,1.08126348 4.25973239,1.24991164 C3.88343362,1.62659284 3.56533572,1.97600757 3.29239368,2.32390751 C2.88398408,2.845 2.58093814,3.37215171 2.37623161,3.94626234 C2.17052161,4.52037296 2.06315103,5.12629447 1.99792591,5.82007459 C1.95327179,6.28814896 1.92366962,6.79156874 1.92366962,7.31114643 C1.92567654,8.45785288 2.06565969,9.6873686 2.55434636,10.8022642 C2.18206144,10.8472034 1.88603974,11.150669 1.85994969,11.5334095 C1.83937869,11.8328357 1.82934406,12.1256977 1.82934406,12.4130055 C1.82783886,14.9997854 2.64766845,17.1053626 3.93410852,18.5671483 C4.05954144,18.7105497 4.19049341,18.8443574 4.32445578,18.9756403 C4.32395405,18.9816996 4.32295058,18.9867489 4.32295058,18.993818 C4.32144539,19.0458263 4.32094365,19.0968246 4.32094365,19.148328 C4.32044192,20.1354751 4.57431816,21.0620301 5.00430222,21.8815389 C5.64952918,23.1130744 6.67456704,24.11133 7.85614518,24.8404556 C8.29215002,25.1085759 8.75023106,25.3398359 9.22185885,25.5337308 C7.23449961,26.1719681 5.59584389,26.3183991 4.2456839,26.3199139 C3.64611453,26.3199139 3.10223737,26.2896179 2.60502126,26.2603317 C2.10780515,26.2295306 1.65775182,26.1967099 1.234792,26.1967099 C1.13394393,26.1967099 1.03510279,26.1992346 0.937265105,26.203274 C0.699946013,26.2143826 0.482696189,26.3300126 0.341207851,26.5208779 C0.199217781,26.7122481 0.150048075,26.9541118 0.205740293,27.1863817 C0.439547263,28.1442426 1.00499888,29.0152548 1.7856934,29.7847751 C2.96175249,30.9380457 4.63853982,31.8883326 6.65299257,32.5679745 C8.6669436,33.2445869 11.0210687,33.645 13.5482913,33.645 C17.2325071,33.645 21.2885061,32.7921655 25.1563557,30.6749748 C28.6905538,28.7360259 31.6307015,25.5609972 33.398804,22.0214058 C34.0089098,20.7974443 34.6757112,19.2159892 35.196007,17.535062 C35.7152993,15.8536298 36.0926015,14.0797946 36.093605,12.4412818 C36.093605,11.8853489 36.0479474,11.3445639 35.9460958,10.827006 C36.3936405,10.5033429 36.7930189,10.1882637 37.1542658,9.86914505 C37.8702369,9.23696695 38.4351868,8.58358159 38.9048077,7.84991164 C39.375432,7.11523181 39.7517308,6.30885127 40.1265243,5.35654464 C40.231888,5.09296879 40.1887391,4.79505738 40.013133,4.57187629 L40.013133,4.57187629 Z M36.6811328,8.12762566 C36.1618405,8.67396488 35.5015616,9.21424489 34.604967,9.83127496 C34.3214886,10.0266846 34.1950522,10.3846833 34.2943951,10.7164253 C34.4419042,11.2097464 34.5141536,11.7959754 34.5141536,12.4417868 C34.5161605,13.8308618 34.1779934,15.4819979 33.6883032,17.0629481 C33.1986131,18.6449082 32.5589052,20.1612268 31.986931,21.3084381 C30.3703515,24.5571873 27.6208618,27.5191336 24.4027547,29.2783257 C20.7877779,31.2566594 16.9926793,32.054456 13.548793,32.054456 C10.4009283,32.0559709 7.54908538,31.383398 5.4393036,30.3654499 C4.38416185,29.8574857 3.51616602,29.2646924 2.89000486,28.6471574 C2.61304897,28.3755026 2.38777143,28.1008182 2.20664629,27.8271437 C2.30448397,27.8342128 2.40382685,27.839767 2.50818704,27.8463312 C3.01343086,27.8776371 3.59443616,27.909448 4.24518217,27.909448 C6.23505007,27.9114678 8.87666744,27.6024478 12.1288923,26.1007723 C12.4540144,25.9503018 12.63815,25.6018969 12.5784439,25.2469279 C12.5197413,24.8924639 12.2337542,24.6223238 11.8775247,24.5869784 C11.1590449,24.5147728 10.4129699,24.3188582 9.70502647,24.0153925 C8.64336221,23.5619612 7.67251138,22.8656564 6.98814934,22.0254453 C6.6454666,21.6058446 6.37352802,21.1508986 6.18788729,20.6696959 C6.15276607,20.5808274 6.12517083,20.4904441 6.09657212,20.4005658 C6.29575961,20.4798405 6.49544882,20.553056 6.6961415,20.6106185 C7.33936153,20.7974443 7.92889627,20.8686401 8.66242801,20.8741944 C8.66844879,20.8757092 8.62078428,20.8812635 8.62078428,20.8812635 L8.62078428,21.0216353 L8.74922759,21.0216353 C9.18322551,21.0216353 9.53945501,20.6005199 9.54497406,20.1637514 C9.55099484,19.7279929 9.20429824,19.3306094 8.77030033,19.3220255 C7.4512477,19.2972837 6.12717776,18.6792437 5.11769359,17.5320324 C4.24066658,16.5327668 3.59794828,15.1063266 3.44492012,13.2683647 C3.69127038,13.3117891 3.94916047,13.3314815 4.24417871,13.358748 C4.63201731,13.3930835 5.08257237,13.4253994 5.62494433,13.4864964 C6.03034354,13.5319406 6.40313019,13.2587709 6.48641765,12.8573479 C6.56970511,12.4559249 6.33589814,12.0555118 5.94655435,11.9343275 C5.44632785,11.7772929 5.06701869,11.5485575 4.75795196,11.2612497 C4.52665365,11.0461476 4.33398868,10.7951951 4.17243107,10.510412 C3.93009466,10.0842472 3.76000762,9.5793126 3.6536405,9.03095364 C3.54626992,8.48309961 3.50312099,7.89434588 3.50312099,7.31114643 C3.50312099,6.85317076 3.52921104,6.39872963 3.57035304,5.97105003 C3.60948811,5.55851848 3.66216994,5.21314322 3.73542277,4.91119233 C3.84781067,4.45776107 3.99732671,4.10127725 4.24668736,3.70995295 C4.37663587,3.50646431 4.53769175,3.29287698 4.7348723,3.06161694 C5.61691662,4.22953064 6.66704106,5.29999197 7.73372264,6.20735942 C9.04625276,7.32124512 10.367814,8.18872275 11.465603,8.68406358 C12.9838431,9.3647154 14.4955607,9.93680629 15.7885233,10.363476 C16.4347537,10.5775683 17.0262954,10.7548003 17.5390652,10.8921425 C18.0528384,11.0294847 18.4843277,11.1259272 18.8330312,11.1789454 C19.0944334,11.2183303 19.3563374,11.1249174 19.5339504,10.9284978 C19.7120651,10.7315733 19.7803006,10.4604235 19.7170824,10.2024019 C19.6217534,9.81006771 19.5750924,9.4041003 19.5750924,8.99106381 C19.5725837,7.7428655 20.0035712,6.42498623 20.6944558,5.32927817 C21.0386437,4.78192908 21.4455481,4.29012279 21.8835599,3.88869979 C22.3215717,3.4872768 22.7911925,3.17623709 23.2542909,2.98032247 L23.2542909,2.98032247 C24.4308517,2.4814471 25.6059073,2.23402915 26.7227621,2.23402915 C27.6574882,2.23402915 28.5500689,2.40621184 29.3804349,2.7515871 C30.2097974,3.09696236 30.9769451,3.61553018 31.6587985,4.32496328 C31.6698366,4.33657677 31.6828816,4.34465573 31.6939197,4.35525935 C31.7149925,4.3749518 31.7360652,4.39363438 31.7591449,4.41080216 C31.7792141,4.4259502 31.8012903,4.43857356 31.822363,4.45170186 C31.8444392,4.46533509 31.8665154,4.47795846 31.8895951,4.48957195 C31.9136782,4.50068051 31.9367579,4.5092644 31.960841,4.51835322 C31.9849241,4.52693711 32.0090072,4.53501607 32.0340938,4.54158022 C32.0591804,4.54814437 32.084267,4.55167891 32.1088518,4.55571838 C32.1339384,4.55925293 32.1580216,4.56278747 32.1841116,4.56379734 C32.2122086,4.56531214 32.2398038,4.56430227 32.2684025,4.5632924 C32.2839562,4.56228253 32.2995099,4.56430227 32.3155653,4.56228253 C33.1981114,4.46180055 34.0249652,4.29214253 34.9391203,3.96595479 C35.4363364,3.78872275 35.9596426,3.56554166 36.5366341,3.28681776 C36.4347825,3.61956966 36.3259067,3.91596626 36.2029825,4.16590888 C36.0514595,4.47593872 35.8848846,4.71830732 35.6867006,4.91422194 C35.4880148,5.10963163 35.2567165,5.26616135 34.9366117,5.39340487 C34.5412471,5.54942965 34.3400527,5.98922768 34.4780289,6.39267042 C34.6165069,6.79611315 35.0449857,7.0172745 35.4508867,6.89508033 C36.4252496,6.6012084 37.3213424,6.35682006 38.0348049,6.17605348 C38.0067079,6.23008148 37.9796144,6.28713909 37.9525209,6.33965228 C37.5902706,7.02636332 37.2014285,7.5807815 36.6811328,8.12762566 L36.6811328,8.12762566 Z" id="Shape" sketch:type="MSShapeGroup"></path>
        </g>
    </g>
</svg>